<svg width="20" height="20" viewBox="0 0 20 20" fill="none" xmlns="http://www.w3.org/2000/svg">
<g clip-path="url(#clip0)">
<path d="M18.4592 12.5639C18.1841 12.5639 17.9611 12.7869 17.9611 13.062V17.4846C17.9601 18.3096 17.2918 18.9782 16.4668 18.9789H2.49052C1.66553 18.9782 0.99718 18.3096 0.996207 17.4846V4.50456C0.99718 3.67977 1.66553 3.01122 2.49052 3.01025H6.91313C7.18826 3.01025 7.41124 2.78727 7.41124 2.51214C7.41124 2.23721 7.18826 2.01404 6.91313 2.01404H2.49052C1.11567 2.01559 0.00155657 3.12971 0 4.50456V17.4848C0.00155657 18.8597 1.11567 19.9738 2.49052 19.9753H16.4668C17.8416 19.9738 18.9558 18.8597 18.9573 17.4848V13.062C18.9573 12.7869 18.7343 12.5639 18.4592 12.5639Z" fill="#007136"/>
<path d="M18.7601 0.732339C17.8847 -0.143039 16.4655 -0.143039 15.5901 0.732339L6.70365 9.61882C6.64275 9.67972 6.59877 9.75521 6.57581 9.8381L5.40721 14.057C5.35916 14.23 5.40799 14.4152 5.53485 14.5423C5.66191 14.6691 5.84714 14.718 6.02012 14.6701L10.239 13.5013C10.3219 13.4783 10.3974 13.4344 10.4583 13.3735L19.3446 4.4868C20.2186 3.61083 20.2186 2.19279 19.3446 1.31683L18.7601 0.732339ZM7.78897 9.94259L15.0619 2.6695L17.4074 5.01506L10.1343 12.2881L7.78897 9.94259ZM7.32044 10.8828L9.19436 12.7569L6.60227 13.475L7.32044 10.8828ZM18.6402 3.78245L18.112 4.31071L15.7662 1.96495L16.2947 1.43669C16.7809 0.950454 17.5693 0.950454 18.0555 1.43669L18.6402 2.02118C19.1257 2.508 19.1257 3.29582 18.6402 3.78245Z" fill="#007136"/>
</g>
<defs>
<clipPath id="clip0">
<rect width="20" height="20" fill="white"/>
</clipPath>
</defs>
</svg>
