<svg width="24" height="24" viewBox="0 0 24 24" fill="none" xmlns="http://www.w3.org/2000/svg">
<circle cx="12" cy="12" r="11.5" fill="white" stroke="#007136"/>
<path d="M6.36858 10.1621C6.18198 9.95858 5.8657 9.94483 5.66214 10.1314C5.45858 10.318 5.44483 10.6343 5.63142 10.8379L6.36858 10.1621ZM11.9583 17L11.5898 17.3379C11.6891 17.4462 11.831 17.5054 11.9778 17.4996C12.1247 17.4939 12.2616 17.4238 12.3521 17.3081L11.9583 17ZM19.3938 8.3081C19.564 8.09062 19.5256 7.77637 19.3081 7.60621C19.0906 7.43605 18.7764 7.47441 18.6062 7.6919L19.3938 8.3081ZM5.63142 10.8379L11.5898 17.3379L12.3269 16.6621L6.36858 10.1621L5.63142 10.8379ZM12.3521 17.3081L19.3938 8.3081L18.6062 7.6919L11.5645 16.6919L12.3521 17.3081Z" fill="#007136"/>
</svg>
