<svg width="20" height="20" viewBox="0 0 20 20" fill="none" xmlns="http://www.w3.org/2000/svg">
<g clip-path="url(#clip0)">
<path d="M12.7585 7.24561C12.4998 7.24561 12.2902 7.45528 12.2902 7.71399V16.5664C12.2902 16.825 12.4998 17.0348 12.7585 17.0348C13.0173 17.0348 13.2269 16.825 13.2269 16.5664V7.71399C13.2269 7.45528 13.0173 7.24561 12.7585 7.24561Z" fill="#007136"/>
<path d="M7.232 7.24561C6.97329 7.24561 6.76361 7.45528 6.76361 7.71399V16.5664C6.76361 16.825 6.97329 17.0348 7.232 17.0348C7.4907 17.0348 7.70038 16.825 7.70038 16.5664V7.71399C7.70038 7.45528 7.4907 7.24561 7.232 7.24561Z" fill="#007136"/>
<path d="M3.20302 5.95285V17.4928C3.20302 18.1749 3.45313 18.8154 3.89005 19.275C4.32495 19.7359 4.93019 19.9976 5.5636 19.9987H14.4255C15.0591 19.9976 15.6644 19.7359 16.0991 19.275C16.536 18.8154 16.7861 18.1749 16.7861 17.4928V5.95285C17.6546 5.72232 18.2174 4.88325 18.1013 3.99205C17.9849 3.10102 17.2258 2.43449 16.3271 2.43431H13.929V1.84883C13.9317 1.35648 13.7371 0.883706 13.3885 0.535895C13.04 0.188267 12.5665 -0.0053064 12.0741 -0.00128123H7.91503C7.42268 -0.0053064 6.94917 0.188267 6.60063 0.535895C6.25209 0.883706 6.05741 1.35648 6.06016 1.84883V2.43431H3.66208C2.76337 2.43449 2.00426 3.10102 1.88789 3.99205C1.77171 4.88325 2.3345 5.72232 3.20302 5.95285ZM14.4255 19.0619H5.5636C4.76278 19.0619 4.13979 18.374 4.13979 17.4928V5.99402H15.8494V17.4928C15.8494 18.374 15.2264 19.0619 14.4255 19.0619ZM6.99692 1.84883C6.99381 1.60494 7.08969 1.3702 7.26277 1.19803C7.43567 1.02587 7.67096 0.931276 7.91503 0.935484H12.0741C12.3182 0.931276 12.5535 1.02587 12.7264 1.19803C12.8995 1.37002 12.9953 1.60494 12.9922 1.84883V2.43431H6.99692V1.84883ZM3.66208 3.37107H16.3271C16.7927 3.37107 17.1702 3.74852 17.1702 4.21416C17.1702 4.6798 16.7927 5.05725 16.3271 5.05725H3.66208C3.19644 5.05725 2.81899 4.6798 2.81899 4.21416C2.81899 3.74852 3.19644 3.37107 3.66208 3.37107Z" fill="#007136"/>
<path d="M9.99529 7.24561C9.73659 7.24561 9.52692 7.45528 9.52692 7.71399V16.5664C9.52692 16.825 9.73659 17.0348 9.99529 17.0348C10.254 17.0348 10.4637 16.825 10.4637 16.5664V7.71399C10.4637 7.45528 10.254 7.24561 9.99529 7.24561Z" fill="#007136"/>
</g>
<defs>
<clipPath id="clip0">
<rect width="20" height="20" fill="white"/>
</clipPath>
</defs>
</svg>
